PathFileType	4	(X/Y/Z)	./resultDataOpenSim/trcMotMarkerGrf/sub10/qtm-02-02.trc
DataRate	CameraRate	NumFrames	NumMarkers	Units	OrigDataRate	OrigDataStartFrame	OrigNumFrames
250.000000	250.000000	7	24	m	250.000000	123	491
Frame#	Time	L.Toe.Tip			R.Toe.Tip			L.Ankle.Lat			R.Ankle.Lat			L.Ankle.Med			R.Ankle.Med			L.Heel			R.Heel			L.Knee.Lat			R.Knee.Lat			L.Knee.Med			R.Knee.Med			L.Thigh.Upper			R.Thigh.Upper			L.ASIS			R.ASIS			V.Sacral			L.Acromium			R.Acromium			C7			L.Elbow			R.Elbow			L.Wrist.Lat			R.Wrist.Lat
		X1	Y1	Z1	X2	Y2	Z2	X3	Y3	Z3	X4	Y4	Z4	X5	Y5	Z5	X6	Y6	Z6	X7	Y7	Z7	X8	Y8	Z8	X9	Y9	Z9	X10	Y10	Z10	X11	Y11	Z11	X12	Y12	Z12	X13	Y13	Z13	X14	Y14	Z14	X15	Y15	Z15	X16	Y16	Z16	X17	Y17	Z17	X18	Y18	Z18	X19	Y19	Z19	X20	Y20	Z20	X21	Y21	Z21	X22	Y22	Z22	X23	Y23	Z23	X24	Y24	Z24

123	0.488	-0.43270267	0.058343541	-0.15419453	-0.76204563	0.039489791	-0.031985245	-0.56540219	0.082959377	-0.15316503	-0.89975227	0.053308677	0.00089164201	-0.53886788	0.10682333	-0.073825324	-0.88330457	0.082304518	-0.08260867	-0.61893372	0.053212904	-0.092589738	-0.95314705	0.030492022	-0.049422227	-0.53841526	0.4715927	-0.19127465	-0.80613281	0.44577571	0.052844302	-0.51607971	0.45331216	-0.071914348	-0.7969026	0.44939993	-0.077980774	-0.67781798	0.82226687	-0.26717699	-0.75508466	0.86004251	0.10744823	-0.64027952	0.93616504	-0.19715482	-0.66719026	0.94370706	0.047086015	-0.84974859	0.95464234	-0.1080754	-0.69907336	1.4175136	-0.23597417	-0.72737599	1.3986495	0.088971544	-0.79402208	1.4394899	-0.080389011	-0.81595562	1.1011534	-0.32441455	-0.77383101	1.0479853	0.14700665	-0.71633524	0.87715641	-0.32934975	-0.60034408	0.87530268	0.18141212
124	0.492	-0.41519752	0.059651111	-0.152749	-0.7618979	0.039417255	-0.032057158	-0.54842285	0.080945739	-0.15154442	-0.89960068	0.053495214	0.00069822467	-0.52232082	0.10597681	-0.07231554	-0.883033	0.082197785	-0.082966622	-0.60119866	0.050217486	-0.090681414	-0.95309454	0.030657104	-0.049548615	-0.53215852	0.47017913	-0.19125219	-0.80250538	0.44504429	0.052258526	-0.50939161	0.45235034	-0.071874409	-0.79319923	0.44890535	-0.078549652	-0.67142879	0.82167061	-0.26718056	-0.75052116	0.85903259	0.10725381	-0.63426415	0.93526199	-0.19708396	-0.66255847	0.9425645	0.047355817	-0.84423556	0.95362585	-0.109276	-0.69350781	1.4165898	-0.23554802	-0.72186001	1.3975255	0.089391548	-0.78850247	1.4385415	-0.079928114	-0.81181284	1.1009805	-0.32435232	-0.76642651	1.0464022	0.14777972	-0.71384576	0.8762784	-0.33023069	-0.59024129	0.87603357	0.18077104
125	0.496	-0.39786157	0.061148166	-0.15118837	-0.76173617	0.039317536	-0.032137868	-0.53150414	0.079126334	-0.14996612	-0.89944588	0.053693155	0.00050244931	-0.50596851	0.1053339	-0.070891805	-0.88274001	0.082098095	-0.083325471	-0.58360784	0.04750212	-0.088930529	-0.95303719	0.030840853	-0.049655368	-0.52583086	0.4686584	-0.19133098	-0.79882494	0.44427176	0.051660542	-0.5027574	0.45129825	-0.071936071	-0.78919279	0.44838984	-0.079049811	-0.6650603	0.82098552	-0.267195	-0.74582115	0.85794275	0.10692586	-0.62811323	0.93430717	-0.19701657	-0.6580912	0.9413694	0.047588797	-0.83894689	0.95250538	-0.1103722	-0.68791075	1.4156036	-0.23512729	-0.71629619	1.3963395	0.08978449	-0.78296492	1.437528	-0.079460455	-0.80777841	1.1007565	-0.32433495	-0.75895788	1.0447722	0.14847785	-0.71132173	0.87537621	-0.33108717	-0.58015892	0.87675641	0.18008278
126	0.5	-0.38071938	0.062855825	-0.14953895	-0.76157489	0.039176951	-0.032228644	-0.51472212	0.077482044	-0.14843514	-0.89929814	0.053882679	0.00031704008	-0.48986511	0.10486808	-0.069568162	-0.88243973	0.082002792	-0.083674055	-0.56613176	0.045096881	-0.087289052	-0.9529737	0.031044357	-0.049758288	-0.51947316	0.46704452	-0.19150339	-0.79509519	0.443461	0.051057569	-0.49615671	0.45016857	-0.072068833	-0.78515228	0.44781651	-0.079546765	-0.65865492	0.82022651	-0.26721851	-0.74092078	0.8567484	0.10640581	-0.62161561	0.93330563	-0.19688931	-0.65358901	0.94016298	0.047796534	-0.83357875	0.95127344	-0.11129667	-0.68228907	1.4145532	-0.23471677	-0.7106964	1.395105	0.090152818	-0.7774139	1.4364412	-0.078986201	-0.80384724	1.1004881	-0.32437313	-0.75147938	1.0431141	0.14914324	-0.7087568	0.87446103	-0.33191708	-0.57008477	0.87747185	0.17935218
127	0.504	-0.36379631	0.064801849	-0.14782129	-0.76142037	0.039018648	-0.032319619	-0.49811607	0.07604022	-0.14697547	-0.89927069	0.054052597	0.00014851124	-0.47406008	0.10454991	-0.068357766	-0.88213524	0.081910024	-0.084017212	-0.54878713	0.042958407	-0.085786252	-0.95290693	0.031266863	-0.049875754	-0.51311025	0.46536301	-0.19174503	-0.79131644	0.44261221	0.050452253	-0.48959426	0.44897175	-0.072251943	-0.78124578	0.44715979	-0.080091525	-0.65217855	0.81940548	-0.26723162	-0.73577446	0.85542851	0.10565079	-0.61481921	0.9322611	-0.19669522	-0.64875616	0.93900711	0.047989807	-0.82798257	0.94996698	-0.11203688	-0.6766515	1.4134331	-0.23431726	-0.70508352	1.3938318	0.090505302	-0.771856	1.4352943	-0.078498605	-0.79985345	1.100175	-0.32436749	-0.74401232	1.0414324	0.14980567	-0.70614961	0.87353364	-0.33271956	-0.56003474	0.8781827	0.17859422
128	0.508	-0.34713369	0.067003683	-0.14603191	-0.76126711	0.038887395	-0.032393302	-0.48172982	0.074853036	-0.14563898	-0.89957737	0.054216823	-2.4246716e-05	-0.4585943	0.10435784	-0.067261352	-0.88182036	0.081821761	-0.084360732	-0.53172729	0.041018334	-0.08453882	-0.95284134	0.031506954	-0.050027467	-0.50674035	0.46365392	-0.19202093	-0.78750236	0.44172681	0.049844472	-0.48307949	0.44771756	-0.07246213	-0.77737665	0.44643822	-0.080663005	-0.64564241	0.81851749	-0.26721681	-0.73043838	0.85401768	0.10471181	-0.60803995	0.93117022	-0.19650428	-0.64352025	0.93791644	0.048178498	-0.82220791	0.94861216	-0.11266813	-0.67099957	1.4122504	-0.23392124	-0.69946071	1.3925194	0.090850981	-0.76629695	1.4340982	-0.077988571	-0.79554083	1.0998064	-0.32412559	-0.73654806	1.0397206	0.15046669	-0.70349826	0.87258808	-0.33349331	-0.55003357	0.87888635	0.17782031
129	0.512	-0.33077905	0.069440119	-0.1441631	-0.76110693	0.038804398	-0.03243451	-0.46559826	0.073945385	-0.14447049	-0.90022947	0.054436319	-0.00025114631	-0.4434695	0.1043116	-0.066237715	-0.88149277	0.081740806	-0.084700339	-0.51504799	0.039227052	-0.083617812	-0.95277945	0.031760914	-0.050230032	-0.50035246	0.46194695	-0.19230102	-0.78368436	0.44080921	0.049237459	-0.47661375	0.44641563	-0.072672651	-0.77341122	0.44567615	-0.081217114	-0.63907701	0.81754618	-0.26716959	-0.7251373	0.85261406	0.10382315	-0.60146839	0.93002956	-0.19636559	-0.63808451	0.93684554	0.048361427	-0.81633108	0.94722252	-0.11325424	-0.66532687	1.4110197	-0.23352327	-0.69381748	1.3911556	0.091191292	-0.76076287	1.4328411	-0.07747763	-0.79082584	1.0993739	-0.32353594	-0.72907853	1.0379737	0.15111411	-0.7007981	0.87161983	-0.3342396	-0.54009931	0.87957088	0.17703673
